<?xml version="1.0" encoding="UTF-8" standalone="no"?>
<svg width="161px" height="162px" viewBox="0 0 161 162" version="1.1" xmlns="http://www.w3.org/2000/svg" xmlns:xlink="http://www.w3.org/1999/xlink">
    <!-- Generator: Sketch 3.7.2 (28276) - http://www.bohemiancoding.com/sketch -->
    <title>Slice 1</title>
    <desc>Created with Sketch.</desc>
    <defs></defs>
    <g id="Page-1" stroke="none" stroke-width="1" fill="none" fill-rule="evenodd">
        <polygon id="Fill-17" fill="#E5243B" points="0 161.032 160.922 161.032 160.922 0.105 0 0.105"></polygon>
        <polygon id="Fill-174" fill="#FFFFFF" points="22.4678 21.269 22.5158 21.269 22.5158 46.107 27.9698 46.107 27.9698 13.66 23.6138 13.66 18.5908 19.546 18.5908 25.24 18.6388 25.24"></polygon>
        <path d="M123.9307,76.8813 C123.9307,74.4183 125.9277,72.4243 128.3887,72.4243 C130.8457,72.4243 132.8367,74.4183 132.8367,76.8813 C132.8367,79.3413 130.8457,81.3373 128.3887,81.3373 C125.9277,81.3373 123.9307,79.3413 123.9307,76.8813" id="Fill-176" fill="#FFFFFF"></path>
        <path d="M133.5889,83.0546 C136.6119,83.3276 138.9809,85.8706 138.9809,88.9716 L138.9809,90.4516 L138.9809,91.0986 L138.9809,101.3206 C138.9809,102.2706 138.2069,103.0466 137.2559,103.0466 C136.2979,103.0466 135.5279,102.2706 135.5279,101.3206 L135.5279,90.7146 C135.5279,90.3166 135.4119,89.7776 134.6849,89.7776 C134.1819,89.7776 134.0769,90.3106 134.0589,90.6506 L134.0589,122.4406 C134.0589,123.8066 132.9519,124.9216 131.5789,124.9216 C130.2049,124.9216 129.0929,123.8066 129.0929,122.4406 L129.0929,104.1206 C129.0859,103.9186 129.0189,103.3936 128.3889,103.3936 L128.3859,103.3936 C127.7529,103.3936 127.6759,103.9186 127.6689,104.1206 L127.6689,122.4406 C127.6689,123.8066 126.5639,124.9216 125.1909,124.9216 C123.8149,124.9216 122.7079,123.8066 122.7079,122.4406 L122.7079,90.6506 C122.6919,90.3106 122.5829,89.7776 122.0839,89.7776 C121.3529,89.7776 121.2419,90.3166 121.2419,90.7146 L121.2419,101.3206 C121.2419,102.2706 120.4679,103.0466 119.5139,103.0466 C118.5589,103.0466 117.7889,102.2706 117.7889,101.3206 L117.7889,91.0986 L117.7889,90.4516 L117.7889,88.9716 C117.7889,85.8706 120.1599,83.3276 123.1879,83.0546 C123.2859,83.0416 123.3949,83.0276 123.5139,83.0276 L128.3889,83.0276 L133.2499,83.0276 C133.3779,83.0276 133.4829,83.0416 133.5889,83.0546" id="Fill-178" fill="#FFFFFF"></path>
        <path d="M97.4385,79.2211 C97.4385,76.8911 95.5545,74.9981 93.2235,74.9981 C90.8915,74.9981 89.0025,76.8911 89.0025,79.2211 C89.0025,81.5521 90.8915,83.4401 93.2235,83.4401 C95.5545,83.4401 97.4385,81.5521 97.4385,79.2211" id="Fill-180" fill="#FFFFFF"></path>
        <path d="M84.7227,88.7773 L81.2157,100.1933 C81.2157,100.1933 80.5907,102.2863 82.3667,102.8083 C84.1327,103.3323 84.6687,101.2883 84.6687,101.2883 L87.4967,91.7603 C87.4967,91.7603 87.6507,91.0283 88.2017,91.1863 C88.7527,91.3443 88.5457,92.1283 88.5457,92.1283 L83.6237,109.9843 L88.2017,109.9843 L88.2017,122.7733 C88.2017,123.9833 89.1867,124.9673 90.4017,124.9673 C91.6147,124.9673 92.5957,123.9833 92.5957,122.7733 L92.5957,109.9843 L93.2237,109.9843 L93.8447,109.9843 L93.8447,122.7733 C93.8447,123.9833 94.8247,124.9673 96.0407,124.9673 C97.2587,124.9673 98.2427,123.9833 98.2427,122.7733 L98.2427,109.9843 L102.8177,109.9843 L97.8997,92.1283 C97.8997,92.1283 97.6927,91.3443 98.2427,91.1863 C98.7937,91.0283 98.9477,91.7603 98.9477,91.7603 L101.7747,101.2883 C101.7747,101.2883 102.3127,103.3323 104.0767,102.8083 C105.8557,102.2863 105.2277,100.1933 105.2277,100.1933 L101.7207,88.7773 C101.7207,88.7773 100.4677,85.4773 97.6927,85.4773 L93.2237,85.4773 L88.7527,85.4773 C85.9787,85.4773 84.7227,88.7773 84.7227,88.7773" id="Fill-182" fill="#FFFFFF"></path>
        <path d="M72.1719,79.2211 C72.1719,76.8911 70.2849,74.9981 67.9549,74.9981 C65.6229,74.9981 63.7359,76.8911 63.7359,79.2211 C63.7359,81.5521 65.6229,83.4401 67.9549,83.4401 C70.2849,83.4401 72.1719,81.5521 72.1719,79.2211" id="Fill-184" fill="#FFFFFF"></path>
        <path d="M59.4541,88.7773 L55.9491,100.1933 C55.9491,100.1933 55.3221,102.2863 57.0991,102.8083 C58.8641,103.3323 59.4001,101.2883 59.4001,101.2883 L62.2291,91.7603 C62.2291,91.7603 62.3821,91.0283 62.9331,91.1863 C63.4851,91.3443 63.2761,92.1283 63.2761,92.1283 L58.3561,109.9843 L62.9331,109.9843 L62.9331,122.7733 C62.9331,123.9833 63.9211,124.9673 65.1331,124.9673 C66.3481,124.9673 67.3291,123.9833 67.3291,122.7733 L67.3291,109.9843 L67.9591,109.9843 L68.5781,109.9843 L68.5781,122.7733 C68.5781,123.9833 69.5561,124.9673 70.7751,124.9673 C71.9931,124.9673 72.9741,123.9833 72.9741,122.7733 L72.9741,109.9843 L77.5511,109.9843 L72.6341,92.1283 C72.6341,92.1283 72.4251,91.3443 72.9741,91.1863 C73.5241,91.0283 73.6801,91.7603 73.6801,91.7603 L76.5051,101.2883 C76.5051,101.2883 77.0431,103.3323 78.8081,102.8083 C80.5861,102.2863 79.9581,100.1933 79.9581,100.1933 L76.4511,88.7773 C76.4511,88.7773 75.2011,85.4773 72.4251,85.4773 L67.9591,85.4773 L63.4851,85.4773 C60.7121,85.4773 59.4541,88.7773 59.4541,88.7773" id="Fill-186" fill="#FFFFFF"></path>
        <path d="M111.6065,102.8319 C113.5485,102.8319 115.1165,101.2599 115.1165,99.3169 C115.1165,97.3759 113.5485,95.8089 111.6065,95.8089 C109.6645,95.8089 108.0945,97.3759 108.0945,99.3169 C108.0945,101.2599 109.6645,102.8319 111.6065,102.8319" id="Fill-188" fill="#FFFFFF"></path>
        <path d="M103.1875,113.7406 C103.0155,114.1516 102.8755,115.0216 103.6995,115.4016 C104.6665,115.8456 105.2045,114.9116 105.2045,114.9116 L107.1135,108.8236 C107.1135,108.8236 107.4445,108.4166 107.4445,108.8376 L107.4445,123.1686 L107.4535,123.1686 C107.4535,124.1656 108.2555,124.9696 109.2545,124.9696 C110.2515,124.9696 111.0555,124.1656 111.0555,123.1686 L111.0555,117.5126 C111.0555,117.5126 110.9515,116.7136 111.5955,116.7136 C112.2405,116.7136 112.1405,117.5126 112.1405,117.5126 L112.1405,123.1686 C112.1405,124.1656 112.9495,124.9696 113.9455,124.9696 C114.9395,124.9696 115.7515,124.1656 115.7515,123.1686 L115.7515,108.8376 C115.7515,108.4166 115.9735,108.7176 115.9735,108.7176 L117.4695,112.8856 C117.4695,112.8856 118.1195,114.7486 118.3195,114.8306 C118.9945,115.1146 119.7745,114.7916 120.0595,114.1106 C120.2465,113.6666 120.1745,113.1896 119.9175,112.8296 L119.9295,112.8166 C119.8865,112.6816 117.6935,107.3036 117.4355,106.5486 C116.6435,104.2366 115.2025,104.2566 113.8145,104.2186 C112.4255,104.1846 111.5955,104.2186 111.5955,104.2186 C111.5955,104.2186 110.7085,104.1816 108.8765,104.2366 C107.0465,104.2936 106.4685,105.2316 104.4505,110.4246 C104.1625,111.1726 103.1875,113.5926 103.1745,113.7376 L103.1875,113.7406 Z" id="Fill-190" fill="#FFFFFF"></path>
        <path d="M34.4961,76.8813 C34.4961,74.4183 32.4971,72.4243 30.0371,72.4243 C27.5791,72.4243 25.5881,74.4183 25.5881,76.8813 C25.5881,79.3413 27.5791,81.3373 30.0371,81.3373 C32.4971,81.3373 34.4961,79.3413 34.4961,76.8813" id="Fill-192" fill="#FFFFFF"></path>
        <path d="M24.836,83.0546 C21.815,83.3276 19.442,85.8706 19.442,88.9716 L19.442,90.4516 L19.442,91.0986 L19.442,101.3206 C19.442,102.2706 20.217,103.0466 21.171,103.0466 C22.126,103.0466 22.899,102.2706 22.899,101.3206 L22.899,90.7146 C22.899,90.3166 23.014,89.7776 23.741,89.7776 C24.243,89.7776 24.348,90.3106 24.369,90.6506 L24.369,122.4406 C24.369,123.8066 25.474,124.9216 26.848,124.9216 C28.22,124.9216 29.329,123.8066 29.329,122.4406 L29.329,104.1206 C29.34,103.9186 29.406,103.3936 30.037,103.3936 L30.039,103.3936 C30.672,103.3936 30.749,103.9186 30.755,104.1206 L30.755,122.4406 C30.755,123.8066 31.862,124.9216 33.234,124.9216 C34.609,124.9216 35.716,123.8066 35.716,122.4406 L35.716,90.6506 C35.731,90.3106 35.844,89.7776 36.342,89.7776 C37.073,89.7776 37.183,90.3166 37.183,90.7146 L37.183,101.3206 C37.183,102.2706 37.957,103.0466 38.911,103.0466 C39.865,103.0466 40.637,102.2706 40.637,101.3206 L40.637,91.0986 L40.637,90.4516 L40.637,88.9716 C40.637,85.8706 38.267,83.3276 35.239,83.0546 C35.139,83.0416 35.032,83.0276 34.912,83.0276 L30.037,83.0276 L25.176,83.0276 C25.048,83.0276 24.941,83.0416 24.836,83.0546" id="Fill-194" fill="#FFFFFF"></path>
        <path d="M20.9512,103.1156 L16.9952,124.0846" id="Stroke-196" stroke="#FFFFFF" stroke-width="1.307" stroke-linecap="round"></path>
        <path d="M42.752,100.9921 C42.522,100.6321 42.125,100.3921 41.668,100.3921 C40.963,100.3921 40.389,100.9661 40.389,101.6681 C40.389,101.8721 40.514,102.2301 40.514,102.2301 L44.054,108.6361 C44.054,108.6361 44.271,109.0771 44.271,109.4811 L44.271,123.2371 L44.277,123.2371 C44.277,124.1971 45.052,124.9681 46.009,124.9681 C46.964,124.9681 47.734,124.1971 47.734,123.2371 L47.734,117.8081 C47.734,117.8081 47.637,117.0401 48.257,117.0401 C48.875,117.0401 48.778,117.8081 48.778,117.8081 L48.778,123.2371 C48.778,124.1971 49.555,124.9681 50.511,124.9681 C51.466,124.9681 52.244,124.1971 52.244,123.2371 L52.244,109.4811 C52.244,109.0771 52.458,108.6361 52.458,108.6361 L55.731,102.7221 C55.731,102.7221 56.131,101.8721 56.131,101.6681 C56.131,100.9661 55.559,100.3921 54.851,100.3921 C54.388,100.3921 53.992,100.6321 53.768,100.9921 L53.753,100.9851 C53.65,101.0731 52.012,103.9911 51.471,104.5321 C50.898,105.1091 50.387,105.0451 50.387,105.0451 L48.257,105.0451 L46.132,105.0451 C46.132,105.0451 45.616,105.1091 45.047,104.5321 C44.499,103.9911 42.867,101.0731 42.763,100.9851 L42.752,100.9921 Z" id="Fill-198" fill="#FFFFFF"></path>
        <path d="M48.2569,102.8319 C50.1989,102.8319 51.7669,101.2599 51.7669,99.3169 C51.7669,97.3759 50.1989,95.8089 48.2569,95.8089 C46.3159,95.8089 44.7469,97.3759 44.7469,99.3169 C44.7469,101.2599 46.3159,102.8319 48.2569,102.8319" id="Fill-200" fill="#FFFFFF"></path>
        <polygon id="Fill-202" fill="#FFFFFF" points="48.2627 107.7607 52.2317 110.6557 54.1177 117.5997 48.2627 117.5997 42.4037 117.5997 44.2937 110.6557"></polygon>
        <polygon id="Fill-299" fill="#FFFFFF" points="43.0371 13.2045 48.3781 13.2045 48.3781 15.0645 45.3171 15.0645 45.3171 18.9455 47.5991 18.9455 47.5991 20.7865 45.3171 20.7865 45.3171 26.7675 43.0371 26.7675"></polygon>
        <polygon id="Fill-300" fill="#FFFFFF" points="49.377 26.768 51.657 26.768 51.657 13.205 49.377 13.205"></polygon>
        <polygon id="Fill-301" fill="#FFFFFF" points="54.8975 18.2455 54.8975 26.7675 52.9765 26.7675 52.9765 13.2045 55.2165 13.2045 57.6775 20.9865 57.6775 13.2045 59.5785 13.2045 59.5785 26.7675 57.5785 26.7675"></polygon>
        <path d="M46.2784,43.9072 C47.2174,43.9072 47.5784,43.3472 47.5784,42.5272 L47.5784,35.4252 C47.5784,34.6252 47.2174,34.0652 46.2784,34.0652 L45.3174,34.0652 L45.3174,43.9072 L46.2784,43.9072 L46.2784,43.9072 Z M49.8584,35.8452 L49.8584,42.1272 C49.8584,44.2072 48.9984,45.7672 46.5574,45.7672 L43.0374,45.7672 L43.0374,32.2042 L46.5574,32.2042 C48.9984,32.2042 49.8584,33.7452 49.8584,35.8452 L49.8584,35.8452 Z" id="Fill-302" fill="#FFFFFF"></path>
        <polygon id="Fill-304" fill="#FFFFFF" points="51.1573 32.2045 56.5983 32.2045 56.5983 34.0645 53.4373 34.0645 53.4373 37.9455 55.6983 37.9455 55.6983 39.7865 53.4373 39.7865 53.4373 43.9075 56.5983 43.9075 56.5983 45.7675 51.1573 45.7675"></polygon>
        <polygon id="Fill-306" fill="#FFFFFF" points="59.917 32.2045 62.197 32.2045 62.197 43.9075 64.918 43.9075 64.918 45.7675 59.917 45.7675"></polygon>
        <path d="M68.4571,41.4667 L70.2771,41.4667 L69.3771,36.0257 L69.3561,36.0257 L68.4571,41.4667 Z M65.5961,45.7677 L68.1561,32.2047 L70.7571,32.2047 L73.3381,45.7677 L70.9971,45.7677 L70.5771,43.2867 L68.1561,43.2867 L67.7571,45.7677 L65.5961,45.7677 Z" id="Fill-308" fill="#FFFFFF"></path>
        <path d="M78.6553,34.0649 L78.6553,39.4059 L79.4963,39.4059 C80.2763,39.4059 80.6163,39.0259 80.6163,38.2859 L80.6163,35.1659 C80.6163,34.4249 80.2763,34.0649 79.4963,34.0649 L78.6553,34.0649 Z M76.3753,32.2049 L79.7563,32.2049 C82.0563,32.2049 82.8963,33.3449 82.8963,35.2449 L82.8963,38.1059 C82.8963,40.0059 82.0563,41.1669 79.7563,41.1669 L78.6553,41.1669 L78.6553,45.7679 L76.3753,45.7679 L76.3753,32.2049 Z" id="Fill-310" fill="#FFFFFF"></path>
        <path d="M88.6953,42.6269 L88.6953,35.3449 C88.6953,34.5249 88.3353,33.9449 87.5143,33.9449 C86.7153,33.9449 86.3543,34.5249 86.3543,35.3449 L86.3543,42.6269 C86.3543,43.4469 86.7153,44.0269 87.5143,44.0269 C88.3353,44.0269 88.6953,43.4469 88.6953,42.6269 M84.0743,42.2669 L84.0743,35.7059 C84.0743,33.5849 85.1143,32.0449 87.5143,32.0449 C89.9353,32.0449 90.9753,33.5849 90.9753,35.7059 L90.9753,42.2669 C90.9753,44.3669 89.9353,45.9279 87.5143,45.9279 C85.1143,45.9279 84.0743,44.3669 84.0743,42.2669" id="Fill-312" fill="#FFFFFF"></path>
        <path d="M94.5547,39.6664 L94.5547,43.9074 L95.5557,43.9074 C96.3157,43.9074 96.6757,43.5264 96.6757,42.8074 L96.6757,40.7664 C96.6757,40.0464 96.3347,39.6664 95.5347,39.6664 L94.5547,39.6664 Z M94.5547,37.9254 L95.3557,37.9254 C96.0957,37.9254 96.4357,37.5454 96.4357,36.8254 L96.4357,35.1654 C96.4357,34.4254 96.0957,34.0644 95.3347,34.0644 L94.5547,34.0644 L94.5547,37.9254 Z M92.2747,32.2044 L95.5757,32.2044 C97.8557,32.2044 98.6167,33.2654 98.6167,35.1854 L98.6167,36.5654 C98.6167,37.7064 98.1957,38.4254 97.2557,38.7264 C98.3957,38.9864 98.9557,39.7464 98.9557,40.9864 L98.9557,42.7874 C98.9557,44.7074 98.0957,45.7674 95.8157,45.7674 L92.2747,45.7674 L92.2747,32.2044 Z" id="Fill-314" fill="#FFFFFF"></path>
        <path d="M102.3741,34.0649 L102.3741,38.2859 L103.1351,38.2859 C103.9151,38.2859 104.2551,37.8859 104.2551,37.1659 L104.2551,35.1659 C104.2551,34.4249 103.9151,34.0649 103.1351,34.0649 L102.3741,34.0649 Z M102.3741,39.5459 L102.3741,45.7679 L100.0941,45.7679 L100.0941,32.2049 L103.4151,32.2049 C105.7151,32.2049 106.5561,33.3449 106.5561,35.2449 L106.5561,36.9859 C106.5561,38.4459 106.0351,39.3059 104.7341,39.6069 L106.9151,45.7679 L104.5151,45.7679 L102.3741,39.5459 Z" id="Fill-316" fill="#FFFFFF"></path>
        <polygon id="Fill-318" fill="#FFFFFF" points="107.793 32.2045 113.234 32.2045 113.234 34.0645 110.073 34.0645 110.073 37.9455 112.334 37.9455 112.334 39.7865 110.073 39.7865 110.073 43.9075 113.234 43.9075 113.234 45.7675 107.793 45.7675"></polygon>
        <polygon id="Fill-320" fill="#FFFFFF" points="116.6729 43.9072 120.1339 43.9072 120.1339 45.7672 114.2919 45.7672 114.2919 43.9072 117.8729 34.0652 114.6529 34.0652 114.6529 32.2042 120.2739 32.2042 120.2739 34.0652"></polygon>
        <path d="M123.8731,41.4667 L125.6931,41.4667 L124.7931,36.0257 L124.7721,36.0257 L123.8731,41.4667 Z M121.0121,45.7677 L123.5721,32.2047 L126.1731,32.2047 L128.7541,45.7677 L126.4131,45.7677 L125.9931,43.2867 L123.5721,43.2867 L123.1731,45.7677 L121.0121,45.7677 Z" id="Fill-322" fill="#FFFFFF"></path>
    </g>
</svg>