<?xml version="1.0" encoding="UTF-8"?>
<svg width="536px" height="126px" viewBox="0 0 536 126" version="1.1" xmlns="http://www.w3.org/2000/svg" xmlns:xlink="http://www.w3.org/1999/xlink">
    <!-- Generator: Sketch 40.3 (33839) - http://www.bohemiancoding.com/sketch -->
    <title>KnucklesMedia-logo-FINAL</title>
    <desc>Created with Sketch.</desc>
    <defs>
        <polygon id="path-1" points="451.178 124.94 0.06 124.94 0.06 0.251 451.178 0.251 451.178 124.94"></polygon>
    </defs>
    <g id="Page-1" stroke="none" stroke-width="1" fill="none" fill-rule="evenodd">
        <g id="KnucklesMedia-logo-FINAL">
            <polyline id="Fill-1" fill="#000000" points="163.76 1.223 177.56 1.223 177.56 21.424 194.702 1.223 211.063 1.223 192.213 22.633 211.703 51.015 195.129 51.015 182.61 32.521 177.56 38.14 177.56 51.015 163.76 51.015 163.76 1.223"></polyline>
            <polyline id="Fill-2" fill="#000000" points="212.128 1.223 225.003 1.223 245.489 27.542 245.489 1.223 259.146 1.223 259.146 51.015 247.053 51.015 225.785 23.7 225.785 51.015 212.128 51.015 212.128 1.223"></polyline>
            <path d="M263.766,29.177 L263.766,1.223 L277.778,1.223 L277.778,28.893 C277.778,36.078 281.407,39.492 286.955,39.492 C292.503,39.492 296.132,36.22 296.132,29.249 L296.132,1.223 L310.145,1.223 L310.145,28.822 C310.145,44.897 300.968,51.939 286.813,51.939 C272.658,51.939 263.766,44.755 263.766,29.177" id="Fill-3" fill="#000000"></path>
            <path d="M313.06,26.261 L313.06,26.119 C313.06,11.608 324.227,0.227 339.307,0.227 C349.479,0.227 356.022,4.495 360.433,10.612 L350.047,18.65 C347.202,15.093 343.93,12.817 339.164,12.817 C332.193,12.817 327.285,18.721 327.285,25.977 L327.285,26.119 C327.285,33.587 332.193,39.42 339.164,39.42 C344.357,39.42 347.415,37.002 350.402,33.375 L360.788,40.772 C356.094,47.245 349.763,52.011 338.737,52.011 C324.511,52.011 313.06,41.127 313.06,26.261" id="Fill-4" fill="#000000"></path>
            <polyline id="Fill-5" fill="#000000" points="363.133 1.223 376.932 1.223 376.932 21.424 394.074 1.223 410.436 1.223 391.585 22.633 411.075 51.015 394.502 51.015 381.982 32.521 376.932 38.14 376.932 51.015 363.133 51.015 363.133 1.223"></polyline>
            <polyline id="Fill-6" fill="#000000" points="411.5 1.223 425.299 1.223 425.299 38.922 449.412 38.922 449.412 51.015 411.5 51.015 411.5 1.223"></polyline>
            <polyline id="Fill-7" fill="#000000" points="451.759 1.223 491.806 1.223 491.806 12.959 465.416 12.959 465.416 20.5 489.316 20.5 489.316 31.382 465.416 31.382 465.416 39.278 492.162 39.278 492.162 51.015 451.759 51.015 451.759 1.223"></polyline>
            <path d="M491.875,43.617 L499.558,34.441 C504.466,38.354 509.943,40.416 515.704,40.416 C519.403,40.416 521.396,39.136 521.396,37.002 L521.396,36.86 C521.396,34.797 519.759,33.659 513.002,32.094 C502.402,29.676 494.223,26.688 494.223,16.445 L494.223,16.302 C494.223,7.056 501.55,0.369 513.5,0.369 C521.965,0.369 528.58,2.645 533.985,6.984 L527.086,16.729 C522.533,13.528 517.555,11.822 513.145,11.822 C509.801,11.822 508.164,13.244 508.164,15.022 L508.164,15.165 C508.164,17.441 509.872,18.437 516.771,20.001 C528.225,22.491 535.337,26.19 535.337,35.508 L535.337,35.651 C535.337,45.822 527.299,51.868 515.207,51.868 C506.386,51.868 497.992,49.094 491.875,43.617" id="Fill-8" fill="#000000"></path>
            <polyline id="Fill-9" fill="#FFFFFF" points="164.976 61.339 183.578 61.339 198.731 85.929 213.885 61.339 232.486 61.339 232.486 124.857 214.974 124.857 214.974 88.379 198.731 113.242 198.368 113.242 182.217 88.561 182.217 124.857 164.976 124.857 164.976 61.339"></polyline>
            <polyline id="Fill-10" fill="#FFFFFF" points="239.205 61.339 290.291 61.339 290.291 76.311 256.626 76.311 256.626 85.929 287.115 85.929 287.115 99.812 256.626 99.812 256.626 109.885 290.744 109.885 290.744 124.857 239.205 124.857 239.205 61.339"></polyline>
            <path d="M319.965,109.249 C330.491,109.249 337.478,103.442 337.478,93.189 L337.478,93.007 C337.478,82.844 330.491,76.946 319.965,76.946 L312.797,76.946 L312.797,109.249 L319.965,109.249 L319.965,109.249 Z M295.192,61.339 L319.693,61.339 C342.378,61.339 355.535,74.406 355.535,92.735 L355.535,92.917 C355.535,111.246 342.196,124.857 319.329,124.857 L295.192,124.857 L295.192,61.339 L295.192,61.339 Z" id="Fill-11" fill="#FFFFFF"></path>
            <polygon id="Fill-12" fill="#FFFFFF" points="360.438 124.857 378.132 124.857 378.132 61.339 360.438 61.339"></polygon>
            <g id="Group-16" transform="translate(0.000000, 1.000000)">
                <mask id="mask-2" fill="white">
                    <use xlink:href="#path-1"></use>
                </mask>
                <g id="Clip-14"></g>
                <path d="M422.596,98.812 L415.519,80.755 L408.35,98.812 L422.596,98.812 L422.596,98.812 Z M407.17,59.885 L424.139,59.885 L451.178,123.857 L432.304,123.857 L427.677,112.515 L403.177,112.515 L398.64,123.857 L380.13,123.857 L407.17,59.885 L407.17,59.885 Z" id="Fill-13" fill="#FFFFFF" mask="url(#mask-2)"></path>
                <path d="M13.719,111.379 L135.117,111.379 L135.117,13.873 L13.719,13.873 L13.719,111.379 Z M0,125 L148.836,125 L148.836,0.251 L0,0.251 L0,125 Z" id="Fill-15" fill="#84B843" mask="url(#mask-2)"></path>
            </g>
            <polyline id="Fill-17" fill="#FFFFFF" points="62.049 34.03 78.985 34.03 92.781 56.418 106.578 34.03 123.514 34.03 123.514 91.86 107.569 91.86 107.569 58.649 92.781 81.285 92.451 81.285 77.746 58.814 77.746 91.86 62.049 91.86 62.049 34.03"></polyline>
            <polyline id="Fill-18" fill="#000000" points="22.958 33.595 39.106 33.595 39.106 57.234 59.166 33.595 78.311 33.595 56.252 58.649 79.06 91.861 59.666 91.861 45.016 70.219 39.106 76.795 39.106 91.861 22.958 91.861 22.958 33.595"></polyline>
        </g>
    </g>
</svg>